<svg width="100%" viewBox="0 0 680 300" xmlns="http://www.w3.org/2000/svg"><rect width="680" height="300" fill="#0C0B09"/><line x1="40" y1="40" x2="340" y2="200" stroke="#3A3630" stroke-width="1"/><line x1="100" y1="40" x2="340" y2="200" stroke="#3A3630" stroke-width="1"/><line x1="160" y1="40" x2="340" y2="200" stroke="#3A3630" stroke-width="1"/><line x1="220" y1="40" x2="340" y2="200" stroke="#3A3630" stroke-width="1"/><line x1="280" y1="40" x2="340" y2="200" stroke="#3A3630" stroke-width="1"/><line x1="340" y1="40" x2="340" y2="200" stroke="#3A3630" stroke-width="1"/><line x1="400" y1="40" x2="340" y2="200" stroke="#3A3630" stroke-width="1"/><line x1="460" y1="40" x2="340" y2="200" stroke="#3A3630" stroke-width="1"/><line x1="520" y1="40" x2="340" y2="200" stroke="#3A3630" stroke-width="1"/><line x1="580" y1="40" x2="340" y2="200" stroke="#3A3630" stroke-width="1"/><line x1="640" y1="40" x2="340" y2="200" stroke="#3A3630" stroke-width="1"/><line x1="340" y1="200" x2="340" y2="280" stroke="#C9A84C" stroke-width="2"/><line x1="340" y1="200" x2="300" y2="280" stroke="#2A2620" stroke-width="0.8"/><line x1="340" y1="200" x2="380" y2="280" stroke="#2A2620" stroke-width="0.8"/><circle cx="340" cy="200" r="6" fill="#0C0B09" stroke="#C9A84C" stroke-width="1.5"/><circle cx="340" cy="200" r="2.5" fill="#C9A84C"/><circle cx="40" cy="40" r="2.5" fill="#3A3630"/><circle cx="100" cy="40" r="2.5" fill="#3A3630"/><circle cx="160" cy="40" r="2.5" fill="#3A3630"/><circle cx="220" cy="40" r="2.5" fill="#3A3630"/><circle cx="280" cy="40" r="2.5" fill="#3A3630"/><circle cx="340" cy="40" r="2.5" fill="#3A3630"/><circle cx="400" cy="40" r="2.5" fill="#3A3630"/><circle cx="460" cy="40" r="2.5" fill="#3A3630"/><circle cx="520" cy="40" r="2.5" fill="#3A3630"/><circle cx="580" cy="40" r="2.5" fill="#3A3630"/><circle cx="640" cy="40" r="2.5" fill="#3A3630"/></svg>
