<svg width="100%" viewBox="0 0 680 300" xmlns="http://www.w3.org/2000/svg"><rect width="680" height="300" fill="#0C0B09"/><line x1="60" y1="260" x2="340" y2="150" stroke="#3A3630" stroke-width="1"/><line x1="60" y1="230" x2="340" y2="150" stroke="#3A3630" stroke-width="1"/><line x1="60" y1="200" x2="340" y2="150" stroke="#3A3630" stroke-width="1"/><line x1="60" y1="170" x2="340" y2="150" stroke="#3A3630" stroke-width="1"/><line x1="60" y1="140" x2="340" y2="150" stroke="#3A3630" stroke-width="1"/><line x1="60" y1="110" x2="340" y2="150" stroke="#3A3630" stroke-width="1"/><line x1="60" y1="80" x2="340" y2="150" stroke="#3A3630" stroke-width="1"/><line x1="60" y1="50" x2="340" y2="150" stroke="#3A3630" stroke-width="1"/><line x1="340" y1="150" x2="620" y2="260" stroke="#2A2620" stroke-width="0.8"/><line x1="340" y1="150" x2="620" y2="220" stroke="#2A2620" stroke-width="0.8"/><line x1="340" y1="150" x2="620" y2="100" stroke="#2A2620" stroke-width="0.8"/><line x1="340" y1="150" x2="620" y2="60" stroke="#2A2620" stroke-width="0.8"/><line x1="340" y1="150" x2="620" y2="140" stroke="#C9A84C" stroke-width="2"/><line x1="340" y1="150" x2="620" y2="135" stroke="#8A6B2A" stroke-width="0.8"/><circle cx="340" cy="150" r="24" fill="none" stroke="#2A2620" stroke-width="0.8"/><circle cx="340" cy="150" r="12" fill="none" stroke="#3A3630" stroke-width="0.8"/><circle cx="340" cy="150" r="5" fill="#161410" stroke="#C9A84C" stroke-width="1.5"/><circle cx="340" cy="150" r="2" fill="#C9A84C"/><circle cx="620" cy="140" r="4" fill="#C9A84C"/><circle cx="60" cy="260" r="2.5" fill="#3A3630"/><circle cx="60" cy="230" r="2.5" fill="#3A3630"/><circle cx="60" cy="200" r="2.5" fill="#3A3630"/><circle cx="60" cy="170" r="2.5" fill="#3A3630"/><circle cx="60" cy="140" r="2.5" fill="#3A3630"/><circle cx="60" cy="110" r="2.5" fill="#3A3630"/><circle cx="60" cy="80" r="2.5" fill="#3A3630"/><circle cx="60" cy="50" r="2.5" fill="#3A3630"/></svg>
