<svg width="100%" viewBox="0 0 680 300" xmlns="http://www.w3.org/2000/svg"><rect width="680" height="300" fill="#0C0B09"/><line x1="340" y1="40" x2="340" y2="300" stroke="#3A3630" stroke-width="1"/><line x1="100" y1="170" x2="580" y2="170" stroke="#3A3630" stroke-width="1"/><ellipse cx="340" cy="170" rx="120" ry="60" fill="none" stroke="#2A2620" stroke-width="0.8"/><ellipse cx="340" cy="170" rx="200" ry="100" fill="none" stroke="#1C1A16" stroke-width="0.8"/><ellipse cx="340" cy="170" rx="60" ry="30" fill="none" stroke="#3A3630" stroke-width="0.8"/><line x1="220" y1="110" x2="460" y2="230" stroke="#2A2620" stroke-width="0.6"/><line x1="460" y1="110" x2="220" y2="230" stroke="#2A2620" stroke-width="0.6"/><circle cx="340" cy="170" r="6" fill="#0C0B09" stroke="#C9A84C" stroke-width="1.5"/><circle cx="340" cy="170" r="2.5" fill="#C9A84C"/><circle cx="340" cy="110" r="2.5" fill="#3A3630"/><circle cx="340" cy="230" r="2.5" fill="#3A3630"/><circle cx="220" cy="170" r="2.5" fill="#3A3630"/><circle cx="460" cy="170" r="2.5" fill="#3A3630"/><circle cx="140" cy="170" r="2" fill="#2A2620"/><circle cx="540" cy="170" r="2" fill="#2A2620"/><line x1="60" y1="298" x2="620" y2="298" stroke="#1C1A16" stroke-width="0.8"/><circle cx="340" cy="298" r="2" fill="#C9A84C" opacity="0.5"/></svg>
