<svg width="100%" viewBox="0 0 680 300" xmlns="http://www.w3.org/2000/svg"><rect width="680" height="300" fill="#0C0B09"/><line x1="120" y1="60" x2="340" y2="150" stroke="#3A3630" stroke-width="1"/><line x1="200" y1="60" x2="340" y2="150" stroke="#3A3630" stroke-width="1"/><line x1="280" y1="60" x2="340" y2="150" stroke="#3A3630" stroke-width="1"/><line x1="400" y1="60" x2="340" y2="150" stroke="#3A3630" stroke-width="1"/><line x1="480" y1="60" x2="340" y2="150" stroke="#3A3630" stroke-width="1"/><line x1="560" y1="60" x2="340" y2="150" stroke="#3A3630" stroke-width="1"/><line x1="340" y1="150" x2="120" y2="260" stroke="#2A2620" stroke-width="0.8"/><line x1="340" y1="150" x2="200" y2="260" stroke="#2A2620" stroke-width="0.8"/><line x1="340" y1="150" x2="280" y2="260" stroke="#2A2620" stroke-width="0.8"/><line x1="340" y1="150" x2="400" y2="260" stroke="#2A2620" stroke-width="0.8"/><line x1="340" y1="150" x2="480" y2="260" stroke="#2A2620" stroke-width="0.8"/><line x1="340" y1="150" x2="560" y2="260" stroke="#2A2620" stroke-width="0.8"/><rect x="280" y="120" width="120" height="60" fill="#161410" stroke="#2A2620" stroke-width="0.8"/><circle cx="340" cy="150" r="5" fill="#0C0B09" stroke="#C9A84C" stroke-width="1.5"/><circle cx="340" cy="150" r="2" fill="#C9A84C"/><circle cx="120" cy="60" r="2.5" fill="#3A3630"/><circle cx="200" cy="60" r="2.5" fill="#3A3630"/><circle cx="280" cy="60" r="2.5" fill="#3A3630"/><circle cx="400" cy="60" r="2.5" fill="#3A3630"/><circle cx="480" cy="60" r="2.5" fill="#3A3630"/><circle cx="560" cy="60" r="2.5" fill="#3A3630"/></svg>
