<svg width="100%" viewBox="0 0 680 300" xmlns="http://www.w3.org/2000/svg"><rect width="680" height="300" fill="#0C0B09"/><line x1="40" y1="40" x2="640" y2="40" stroke="#2A2620" stroke-width="0.6"/><line x1="40" y1="80" x2="640" y2="80" stroke="#2A2620" stroke-width="0.6"/><line x1="40" y1="120" x2="640" y2="120" stroke="#2A2620" stroke-width="0.6"/><line x1="40" y1="160" x2="640" y2="160" stroke="#2A2620" stroke-width="0.6"/><line x1="40" y1="200" x2="640" y2="200" stroke="#2A2620" stroke-width="0.6"/><line x1="40" y1="240" x2="640" y2="240" stroke="#2A2620" stroke-width="0.6"/><line x1="140" y1="20" x2="140" y2="280" stroke="#2A2620" stroke-width="0.6"/><line x1="240" y1="20" x2="240" y2="280" stroke="#2A2620" stroke-width="0.6"/><line x1="340" y1="20" x2="340" y2="280" stroke="#2A2620" stroke-width="0.6"/><line x1="440" y1="20" x2="440" y2="280" stroke="#2A2620" stroke-width="0.6"/><line x1="540" y1="20" x2="540" y2="280" stroke="#2A2620" stroke-width="0.6"/><path d="M80 240 Q120 120 180 160 Q240 200 280 80 Q320 20 370 100 Q420 160 460 40 Q500 0 540 70 Q580 130 620 60" stroke="#C9A84C" stroke-width="2" fill="none"/><path d="M80 245 Q120 125 180 165 Q240 205 280 85 Q320 25 370 105 Q420 165 460 45 Q500 5 540 75 Q580 135 620 65" stroke="#8A6B2A" stroke-width="0.8" fill="none"/><circle cx="80" cy="240" r="3" fill="#C9A84C"/><circle cx="620" cy="60" r="3" fill="#C9A84C"/></svg>
