<svg width="100%" viewBox="0 0 680 300" xmlns="http://www.w3.org/2000/svg"><rect width="680" height="300" fill="#0C0B09"/><line x1="60" y1="60" x2="260" y2="60" stroke="#3A3630" stroke-width="1"/><line x1="60" y1="100" x2="220" y2="100" stroke="#3A3630" stroke-width="1"/><line x1="60" y1="140" x2="280" y2="140" stroke="#3A3630" stroke-width="1"/><line x1="60" y1="180" x2="200" y2="180" stroke="#3A3630" stroke-width="1"/><line x1="60" y1="220" x2="260" y2="220" stroke="#3A3630" stroke-width="1"/><line x1="60" y1="260" x2="180" y2="260" stroke="#3A3630" stroke-width="1"/><rect x="56" y="56" width="4" height="4" fill="#3A3630"/><rect x="56" y="96" width="4" height="4" fill="#3A3630"/><rect x="56" y="136" width="4" height="4" fill="#3A3630"/><rect x="56" y="176" width="4" height="4" fill="#3A3630"/><rect x="56" y="216" width="4" height="4" fill="#3A3630"/><rect x="56" y="256" width="4" height="4" fill="#3A3630"/><line x1="340" y1="40" x2="340" y2="280" stroke="#2A2620" stroke-width="1" stroke-dasharray="4 6"/><line x1="420" y1="60" x2="620" y2="60" stroke="#C9A84C" stroke-width="1.5"/><line x1="420" y1="100" x2="620" y2="100" stroke="#C9A84C" stroke-width="1.5"/><line x1="420" y1="140" x2="620" y2="140" stroke="#C9A84C" stroke-width="1.5"/><line x1="420" y1="180" x2="620" y2="180" stroke="#C9A84C" stroke-width="1.5"/><line x1="420" y1="220" x2="620" y2="220" stroke="#C9A84C" stroke-width="1.5"/><line x1="420" y1="260" x2="620" y2="260" stroke="#C9A84C" stroke-width="1.5"/><rect x="416" y="56" width="4" height="4" fill="#C9A84C"/><rect x="416" y="96" width="4" height="4" fill="#C9A84C"/><rect x="416" y="136" width="4" height="4" fill="#C9A84C"/><rect x="416" y="176" width="4" height="4" fill="#C9A84C"/><rect x="416" y="216" width="4" height="4" fill="#C9A84C"/><rect x="416" y="256" width="4" height="4" fill="#C9A84C"/></svg>
